<svg aria-hidden="true" style="position: absolute; width: 0; height: 0; overflow: hidden;" version="1.1" xmlns="http://www.w3.org/2000/svg" xmlns:xlink="http://www.w3.org/1999/xlink">
<defs>
<symbol id="adaptations" viewBox="0 0 32 32">
<path fill="#8033fd" style="fill: var(--color1, #8033fd)" d="M23.565 14.99c-0.417-3.438-3.101-6.145-6.504-6.558-0.265-0.032-0.571-0.051-0.882-0.051h-0c-3.007 0.005-5.715 1.842-6.858 4.653s-0.497 6.042 1.637 8.184c1.098 1.067 1.785 2.552 1.803 4.197l0 0.003v0.867h6.856v-0.872c0.004-1.618 0.669-3.081 1.738-4.132l0.001-0.001c1.672-1.63 2.49-3.96 2.209-6.291zM16 32c0.685-0.001 1.295-0.458 1.524-1.143h-3.048c0.229 0.685 0.839 1.142 1.524 1.143zM13.333 29.143c0 0.315 0.256 0.571 0.571 0.571h4.571c0.315-0 0.571-0.256 0.571-0.571v-1.714h-5.714v1.714zM16 5.333c0.631 0 1.143-0.531 1.143-1.185v-2.963c0-0.654-0.512-1.185-1.143-1.185s-1.143 0.531-1.143 1.185v2.963c0 0.654 0.512 1.185 1.143 1.185zM6.482 8.065c0.204 0.196 0.481 0.316 0.786 0.316s0.583-0.12 0.787-0.316l-0 0c0.202-0.202 0.326-0.481 0.326-0.789s-0.125-0.587-0.326-0.789l-1.966-1.971c-0.201-0.202-0.479-0.326-0.786-0.326s-0.585 0.125-0.786 0.326l-0 0c-0.202 0.202-0.326 0.481-0.326 0.789s0.125 0.587 0.326 0.789l1.966 1.971zM5.333 16c0-0.631-0.531-1.143-1.185-1.143h-2.963c-0.654 0.001-1.184 0.512-1.185 1.143 0.001 0.631 0.531 1.142 1.185 1.143h2.963c0.654 0 1.185-0.512 1.185-1.143zM7.556 23.657c-0.086-0.024-0.185-0.038-0.288-0.038-0.308 0-0.586 0.125-0.787 0.328l-0 0-1.965 1.97c-0.201 0.202-0.326 0.48-0.326 0.788s0.125 0.586 0.326 0.788l-0-0c0.204 0.196 0.481 0.316 0.786 0.316s0.582-0.12 0.787-0.316l-0 0 1.966-1.97c0.202-0.202 0.326-0.481 0.326-0.789 0-0.513-0.346-0.945-0.817-1.076l-0.008-0.002zM25.518 23.947c-0.201-0.203-0.48-0.328-0.788-0.328-0.513 0-0.944 0.347-1.072 0.82l-0.002 0.008c-0.024 0.086-0.038 0.185-0.038 0.288 0 0.308 0.125 0.588 0.327 0.79v0l1.966 1.97c0.204 0.195 0.481 0.316 0.786 0.316s0.582-0.12 0.786-0.316l-0 0c0.201-0.202 0.326-0.48 0.326-0.788s-0.125-0.586-0.326-0.788l-1.965-1.97zM30.815 14.857h-2.963c-0.654 0-1.185 0.512-1.185 1.143s0.531 1.143 1.185 1.143h2.963c0.654 0 1.185-0.512 1.185-1.143s-0.531-1.143-1.185-1.143zM25.518 8.065l1.966-1.971c0.201-0.202 0.325-0.48 0.325-0.788 0-0.513-0.345-0.944-0.816-1.076l-0.008-0.002c-0.086-0.024-0.186-0.038-0.288-0.038-0.307 0-0.585 0.125-0.786 0.326l-1.966 1.971c-0.202 0.202-0.326 0.481-0.326 0.789s0.125 0.587 0.326 0.789v0c0.204 0.196 0.481 0.316 0.786 0.316s0.583-0.12 0.787-0.316l-0 0z"></path>
</symbol>
<symbol id="close" viewBox="0 0 31 32">
<path fill="none" stroke="#8033fd" style="stroke: var(--color1, #8033fd)" stroke-linejoin="miter" stroke-linecap="butt" stroke-miterlimit="4" stroke-width="1.641" d="M30.359 16c0 8.157-6.612 14.769-14.769 14.769s-14.769-6.612-14.769-14.769c0-8.157 6.612-14.769 14.769-14.769s14.769 6.612 14.769 14.769z"></path>
<path fill="none" stroke="#8033fd" style="stroke: var(--color1, #8033fd)" stroke-linejoin="miter" stroke-linecap="butt" stroke-miterlimit="4" stroke-width="0.8205" d="M10.716 9.556c0.16-0.16 0.42-0.16 0.58 0l9.863 9.863c0.16 0.16 0.16 0.42 0 0.58s-0.42 0.16-0.58 0l-9.863-9.863c-0.16-0.16-0.16-0.42 0-0.58z"></path>
<path fill="none" stroke="#8033fd" style="stroke: var(--color1, #8033fd)" stroke-linejoin="miter" stroke-linecap="butt" stroke-miterlimit="4" stroke-width="0.8205" d="M20.803 9.896c0.16 0.16 0.16 0.42 0 0.58l-9.283 9.283c-0.16 0.16-0.42 0.16-0.58 0s-0.16-0.42 0-0.58l9.283-9.283c0.16-0.16 0.42-0.16 0.58 0z"></path>
</symbol>
<symbol id="frame" viewBox="0 0 77 32">
<path fill="#8033fd" style="fill: var(--color1, #8033fd)" d="M0.974 29.255c-0.223 0.787 0.111 0.787 0.335 0.787s0.446-0.225 0.446-0.45c0-0.224-0.223-0.448-0.335-0.561l-0.446-0.337c-0.446-0.337-0.67-0.673-0.558-1.235 0.223-0.674 0.781-1.011 1.674-1.011s1.228 0.45 1.004 1.348h-1.004c0.223-0.449 0.112-0.673-0.223-0.673-0.223 0-0.446 0.112-0.446 0.337-0.111 0.336 0.112 0.448 0.223 0.561l0.67 0.449c0.223 0.113 0.446 0.561 0.446 0.786-0.112 0.787-0.446 1.46-1.674 1.46-0.558 0-1.339-0.225-1.004-1.46l0.893-0zM5.549 30.603c0-0.113 0-0.224 0.112-0.45-0.335 0.337-0.67 0.561-1.004 0.561-0.67 0-1.004-0.336-0.781-1.235s0.893-1.123 1.674-1.46c0.446-0.113 0.558-0.337 0.558-0.674 0-0.113-0.112-0.224-0.335-0.224-0.446 0-0.558 0.224-0.669 0.673h-0.894c0.224-0.786 0.558-1.347 1.674-1.347 1.339 0 1.228 0.674 1.116 1.235l-0.446 2.359c-0.111 0.224-0.111 0.337-0.111 0.561l-0.893 0zM5.884 28.469c-0.223 0.225-0.558 0.337-0.781 0.561-0.223 0.113-0.223 0.337-0.335 0.45 0 0.337 0 0.561 0.335 0.561 0.558 0 0.669-0.787 0.669-1.123l0.112-0.45zM8.339 27.234l0.111-0.673h0.335l0.111-0.45c0.223-0.673 0.558-0.898 1.228-0.898h0.335l-0.223 0.786-0.112-0.113c-0.224 0-0.224 0.113-0.224 0.224l-0.111 0.45h0.335l-0.111 0.673h-0.446l-0.67 3.37h-0.893l0.669-3.37h-0.334zM10.906 27.908c0.223-0.899 0.782-1.46 1.674-1.46 1.339 0 1.339 0.674 1.116 1.797l-0.112 0.561h-1.897l-0.111 0.562c-0.111 0.561 0.111 0.674 0.335 0.674 0.335 0 0.558-0.337 0.67-0.787h0.893c-0.223 0.899-0.669 1.46-1.562 1.46-1.116 0-1.451-0.448-1.227-1.684l0.223-1.123zM12.804 28.020l0.112-0.337c0-0.337 0-0.561-0.446-0.561s-0.446 0.449-0.558 0.786v0.113l0.893-0zM15.929 30.603c-0.558 0.112-1.339 0.112-1.116-0.561l0.558-2.809h-0.446l0.223-0.673h0.335l0.223-1.123h1.004l-0.335 1.123h0.446l-0.112 0.673h-0.446l-0.558 2.471c0 0.224 0.335 0.224 0.446 0.224l-0.223 0.674zM18.607 26.56l-0.112 2.133v1.123c0.112-0.337 0.223-0.673 0.335-1.123l0.893-2.133h0.893l-1.786 4.154c-0.446 0.899-0.559 1.46-1.897 1.236l0.223-0.674c0.111 0 0.558 0.113 0.558-0.224v-0.449l-0.111-4.043h1.005zM26.308 29.030c0 0.337 0 0.561-0.111 0.899 0.111-0.225 0.223-0.786 0.335-0.899l0.781-2.47h1.004l-1.673 4.043h-1.005v-1.572c0-0.337 0-0.674 0.111-1.123l-0.335 1.011-0.67 1.684h-1.004v-4.043h1.004l-0.223 2.47c0 0.113-0.112 0.674-0.112 0.899 0.112-0.337 0.224-0.561 0.335-0.899l0.893-2.47h0.781l-0.111 2.47zM30.438 30.603c-0.111-0.113 0-0.224 0-0.45-0.335 0.337-0.67 0.561-0.893 0.561-0.781 0-1.005-0.336-0.893-1.235 0.223-0.899 0.893-1.123 1.674-1.46 0.446-0.113 0.669-0.337 0.669-0.674 0-0.113-0.223-0.224-0.446-0.224-0.446 0-0.558 0.224-0.558 0.673h-0.893c0.111-0.786 0.446-1.347 1.674-1.347s1.228 0.674 1.116 1.235l-0.558 2.359v0.561l-0.893 0zM30.773 28.469c-0.335 0.225-0.558 0.337-0.893 0.561-0.111 0.113-0.223 0.337-0.223 0.45-0.111 0.337 0 0.561 0.335 0.561 0.558 0 0.558-0.787 0.67-1.123l0.112-0.45zM34.344 27.234c0.112-0.225 0.335-0.449 0.446-0.561 0.335-0.225 0.558-0.225 0.67-0.225l-0.223 1.123c-0.558 0-1.004 0.113-1.116 0.674l-0.446 2.359h-1.004l0.893-4.043h0.893l-0.112 0.674zM37.357 27.009c0.335-0.448 0.781-0.561 1.005-0.561 0.446 0 0.893 0.337 0.669 1.011l-0.669 3.145h-0.893l0.558-2.696c0.112-0.337 0.112-0.674-0.223-0.674s-0.558 0.337-0.669 0.787l-0.558 2.583h-0.893l0.893-4.043h0.893l-0.111 0.449zM39.924 30.603l0.893-4.043h0.893l-0.893 4.043h-0.893zM40.817 26.11l0.223-0.898h0.893l-0.112 0.898h-1.004zM44.053 27.009c0.335-0.449 0.782-0.562 1.005-0.562 0.446 0 0.893 0.337 0.67 1.011l-0.67 3.144h-0.893l0.558-2.695c0.112-0.337 0.112-0.674-0.223-0.674s-0.558 0.337-0.67 0.787l-0.558 2.583h-0.893l0.893-4.043h0.893l-0.111 0.449zM47.29 31.052c0 0.113 0.112 0.113 0.112 0.224h0.223c0.446 0 0.558-0.336 0.669-0.561l0.112-0.562c-0.335 0.45-0.558 0.561-1.004 0.561-0.782 0-0.782-0.673-0.67-1.347l0.335-1.46c0.223-1.123 0.669-1.46 1.227-1.46 0.447 0 0.67 0.225 0.67 0.562l0.112-0.449h0.893l-0.782 3.93c-0.111 0.786-0.558 1.46-1.785 1.46-0.67 0-1.116-0.225-1.005-0.899h0.892zM48.518 27.122c-0.447 0-0.447 0.448-0.558 0.786l-0.335 1.347c0 0.45 0 0.787 0.335 0.787 0.223 0 0.446-0.337 0.558-0.787l0.223-1.235c0.111-0.225 0.223-0.898-0.223-0.898zM53.986 29.255c-0.223 0.787 0.112 0.787 0.224 0.787 0.334 0 0.558-0.225 0.558-0.45s-0.224-0.448-0.335-0.561l-0.446-0.337c-0.446-0.337-0.669-0.673-0.558-1.235 0.112-0.674 0.782-1.011 1.675-1.011s1.116 0.45 1.004 1.348h-1.004c0.111-0.449 0-0.673-0.224-0.673s-0.446 0.112-0.558 0.337c0 0.336 0.112 0.448 0.335 0.561l0.67 0.449c0.111 0.113 0.446 0.561 0.446 0.786-0.111 0.787-0.446 1.46-1.674 1.46-0.558 0-1.451-0.225-1.004-1.46l0.892-0zM58.228 26.56l-0.112 2.133c0 0.337 0 0.787-0.112 1.123h0.112c0-0.337 0.223-0.673 0.335-1.123l0.781-2.133h1.005l-1.898 4.154c-0.335 0.899-0.558 1.46-1.785 1.236l0.223-0.674c0.111 0 0.446 0.113 0.558-0.224v-0.449l-0.112-4.043h1.005zM61.464 29.255c-0.223 0.787 0.112 0.787 0.223 0.787 0.335 0 0.559-0.225 0.559-0.45s-0.224-0.448-0.335-0.561l-0.447-0.337c-0.446-0.337-0.669-0.673-0.558-1.235 0.112-0.674 0.781-1.011 1.674-1.011s1.116 0.45 1.005 1.348h-1.005c0.112-0.449 0-0.673-0.223-0.673s-0.446 0.112-0.558 0.337c0 0.336 0.112 0.448 0.335 0.561l0.67 0.449c0.111 0.113 0.446 0.561 0.446 0.786-0.112 0.787-0.446 1.46-1.673 1.46-0.558 0-1.451-0.225-1.005-1.46l0.893-0zM65.594 30.603c-0.558 0.112-1.34 0.112-1.228-0.561l0.67-2.809h-0.447l0.112-0.673h0.446l0.223-1.123h0.893l-0.223 1.123h0.447l-0.224 0.673h-0.335l-0.559 2.471c0 0.224 0.224 0.224 0.335 0.224l-0.111 0.674zM67.268 27.908c0.223-0.899 0.781-1.46 1.674-1.46 1.339 0 1.339 0.674 1.116 1.797l-0.112 0.561h-1.897l-0.111 0.562c-0.112 0.561 0 0.674 0.334 0.674s0.447-0.337 0.558-0.787h1.005c-0.223 0.899-0.67 1.46-1.673 1.46-1.005 0-1.34-0.448-1.116-1.684l0.223-1.123zM69.165 28.020v-0.337c0.112-0.337 0-0.561-0.335-0.561-0.446 0-0.558 0.449-0.558 0.786l-0.111 0.113 1.004-0zM72.625 27.009c0.335-0.448 0.781-0.561 1.005-0.561 0.334 0 0.781 0.113 0.781 0.561 0.223-0.337 0.558-0.561 1.004-0.561 0.781 0 0.893 0.449 0.893 0.898l-0.781 3.257h-0.893l0.558-2.695c0.112-0.449 0.112-0.786-0.223-0.786-0.447 0.112-0.558 0.337-0.67 0.786l-0.558 2.695h-0.893l0.558-2.808c0.112-0.337 0.112-0.673-0.335-0.673-0.446 0.112-0.558 0.337-0.669 0.786l-0.558 2.695h-0.893l0.893-4.043h0.893l-0.111 0.449zM35.236 11.288l2.121-9.433 2.121 9.321-2.121 0.224-2.121-0.112zM24.076 10.951v3.482c-1.116-0.113-3.794-0.561-5.692-0.561-1.674 0-2.121 0.224-2.121 0.674 0 0.337 0.223 0.561 1.451 0.561h1.786c3.795 0 5.022 1.461 5.022 4.155 0 4.156-4.13 4.717-7.812 4.717-2.455 0-4.353-0.113-6.585-0.561v-3.819c1.339 0.337 3.236 0.45 4.799 0.45 2.009 0 3.013 0 3.013-0.561s-0.558-0.561-1.562-0.561h-1.786c-2.456 0-4.911-0.787-4.911-3.706 0-4.155 3.906-4.829 7.812-4.829 1.898 0 4.8 0.225 6.586 0.561zM64.366 10.951v3.482c-1.116-0.113-3.795-0.561-5.692-0.561-1.674 0-2.12 0.224-2.12 0.674 0 0.337 0.223 0.561 1.45 0.561h1.786c3.795 0 5.022 1.461 5.022 4.155 0 4.156-4.129 4.717-7.812 4.717-2.456 0-4.353-0.113-6.585-0.561v-3.819c1.339 0.337 3.237 0.45 4.799 0.45 2.009 0 3.014 0 3.014-0.561s-0.558-0.561-1.563-0.561h-1.786c-2.455 0-4.91-0.787-4.91-3.706 0-4.155 3.906-4.829 7.812-4.829 1.897 0 4.688 0.225 6.585 0.561z"></path>
<path fill="#8033fd" style="fill: var(--color1, #8033fd)" d="M39.812 12.411l1.116 5.165h0.112l1.451-6.85h6.361l-3.571 12.802h-6.25l-1.673-4.267v-0.561l-1.563 4.828h-6.25l-3.571-12.802h6.585l1.339 6.85 1.116-5.166c2.679 1.123 4.799 0 4.799 0z"></path>
<path fill="#8033fd" style="fill: var(--color1, #8033fd)" d="M37.357 11.005c1.42 0 2.686-0.557 3.597-1.455 0.913-0.899 1.479-2.149 1.479-3.53 0-0.003 0-0.007 0-0.010v0.001c0-1.382-0.562-2.636-1.479-3.54-0.912-0.899-2.178-1.456-3.597-1.456-0.652 0-1.297 0.129-1.9 0.38-0.627 0.266-1.161 0.632-1.609 1.084l-0 0 0.001 0.001c-0.45 0.451-0.814 0.989-1.066 1.586l-0.012 0.033c-0.239 0.565-0.378 1.221-0.378 1.91 0 0 0 0.001 0 0.001v-0c0 1.384 0.574 2.601 1.453 3.488l0.002 0.002c0.934 0.939 2.21 1.506 3.51 1.506zM41.659 10.27c-1.095 1.080-2.609 1.749-4.302 1.749-1.568 0-3.101-0.68-4.22-1.805l-0.002-0.002c-1.060-1.067-1.75-2.532-1.75-4.203 0-1.656 0.67-3.159 1.752-4.247h0.002c0.539-0.544 1.182-0.985 1.896-1.29l0.039-0.015c0.674-0.29 1.459-0.458 2.284-0.458h0c1.692 0 3.207 0.669 4.302 1.749 1.1 1.082 1.782 2.587 1.782 4.251 0 0.003 0 0.007 0 0.010v-0c0 1.662-0.676 3.171-1.782 4.261z"></path>
</symbol>
<symbol id="heart" viewBox="0 0 32 32">
<path fill="#8033fd" style="fill: var(--color1, #8033fd)" d="M2.395 5.872c3.195-3.088 8.373-3.088 11.566 0l2.039 1.973 2.039-1.973c3.195-3.088 8.373-3.088 11.566 0 1.477 1.41 2.396 3.395 2.396 5.595s-0.919 4.184-2.393 5.592l-0.003 0.003-13.605 13.161-13.605-13.161c-1.477-1.41-2.396-3.395-2.396-5.595s0.919-4.184 2.393-5.592l0.003-0.003z"></path>
</symbol>
<symbol id="logo" viewBox="0 0 46 32">
<path fill="#442872" style="fill: var(--color2, #442872)" d="M16 23.692h-9.231v-9.538c5.098 0 9.231 4.211 9.231 9.404v0.134z"></path>
<path fill="#8033ff" style="fill: var(--color3, #8033ff)" d="M17.362 23.692h-1.185c-5.196 0-9.407-4.202-9.407-9.385s4.212-9.385 9.407-9.385h10.593v9.385c0 5.183-4.211 9.385-9.407 9.385z"></path>
<path fill="#3d3131" style="fill: var(--color4, #3d3131)" d="M26.458 16.65h1.434l0.418 0.868h1.925v-0.249l-3.239-6.808h-0.226v3.456l0.531 1.205h-0.589c-0.048 0.415-0.128 0.989-0.254 1.527zM37.417 17.538l-3.748-3.623v3.603h-1.864v-7.017h0.581l3.718 3.444v-3.414h1.864v7.007h-0.55zM46.462 17.249l-1.396-2.216c0.693-0.466 1.046-1.145 1.059-2.036 0-0.666-0.227-1.244-0.682-1.737-0.448-0.492-1.076-0.738-1.884-0.738 0-0.007-0.523-0.007-1.569 0h-1.569v6.987h1.864v-2.186h0.978l1.222 2.186h1.976v-0.26zM43.548 13.835h-1.294v-1.727h1.294c0.251 0 0.441 0.083 0.57 0.249 0.136 0.16 0.204 0.36 0.204 0.599s-0.068 0.446-0.204 0.619c-0.136 0.173-0.326 0.26-0.57 0.26z"></path>
<path fill="#fff" style="fill: var(--color5, #fff)" d="M27.535 10.645l-0.088-0.184h-0.863l-3.297 6.807v0.25h1.962l0.411-0.868h1.633c0.122-0.462 0.223-0.975 0.283-1.527h-1.309l0.739-1.687 0.6 1.35c0.005-0.059 0.009-0.119 0.012-0.179 0-1.175-0.045-2.805-0.082-3.962zM12.034 17.509h-1.88v-6.987h1.582c1.054-0.007 1.585-0.007 1.592 0 0.815 0 1.452 0.263 1.91 0.788 0.458 0.519 0.681 1.131 0.668 1.837 0 0.692-0.23 1.291-0.688 1.797-0.452 0.506-1.082 0.758-1.89 0.758h-1.294v1.807zM12.003 14.115h1.325c0.233 0 0.422-0.1 0.565-0.299 0.144-0.206 0.215-0.446 0.215-0.719 0-0.266-0.068-0.496-0.205-0.689-0.137-0.2-0.329-0.299-0.575-0.299h-1.325v2.006zM19.709 10.531v5.35h2.599v1.637h-4.479v-6.987h1.88z"></path>
<path fill="#8033ff" style="fill: var(--color3, #8033ff)" d="M7.231 25.231c1.105 0 2-0.895 2-2s-0.895-2-2-2v0c-1.105 0-2 0.895-2 2s0.895 2 2 2v0z"></path>
<path fill="#fff" style="fill: var(--color5, #fff)" d="M7.804 24.038c0.159-0.166 0.256-0.391 0.256-0.638 0-0.51-0.413-0.923-0.923-0.923-0.248 0-0.473 0.098-0.638 0.256l0-0c-0.159 0.166-0.256 0.391-0.256 0.638 0 0.51 0.413 0.923 0.923 0.923 0.248 0 0.473-0.098 0.638-0.256l-0 0z"></path>
<path fill="#8033ff" style="fill: var(--color3, #8033ff)" d="M26.615 7.077c1.105 0 2-0.895 2-2s-0.895-2-2-2v0c-1.105 0-2 0.895-2 2s0.895 2 2 2v0z"></path>
<path fill="#fff" style="fill: var(--color5, #fff)" d="M27.189 5.884c0.159-0.166 0.256-0.391 0.256-0.638 0-0.51-0.413-0.923-0.923-0.923-0.248 0-0.473 0.098-0.638 0.256l0-0c-0.159 0.166-0.256 0.391-0.256 0.638 0 0.51 0.413 0.923 0.923 0.923 0.248 0 0.473-0.098 0.638-0.256l-0 0z"></path>
</symbol>
<symbol id="menu" viewBox="0 0 31 32">
<path fill="none" stroke="#fff" style="stroke: var(--color5, #fff)" stroke-linejoin="miter" stroke-linecap="butt" stroke-miterlimit="4" stroke-width="1.641" d="M30.359 16c0 8.157-6.612 14.769-14.769 14.769s-14.769-6.612-14.769-14.769c0-8.157 6.612-14.769 14.769-14.769s14.769 6.612 14.769 14.769z"></path>
<path fill="none" stroke="#fff" style="stroke: var(--color5, #fff)" stroke-linejoin="miter" stroke-linecap="butt" stroke-miterlimit="4" stroke-width="0.8205" d="M15.59 7.795c0.227 0 0.41 0.184 0.41 0.41v13.949c0 0.227-0.184 0.41-0.41 0.41s-0.41-0.184-0.41-0.41v-13.949c0-0.227 0.184-0.41 0.41-0.41z"></path>
<path fill="none" stroke="#fff" style="stroke: var(--color5, #fff)" stroke-linejoin="miter" stroke-linecap="butt" stroke-miterlimit="4" stroke-width="0.8205" d="M22.564 15.59c0 0.227-0.184 0.41-0.41 0.41h-13.128c-0.227 0-0.41-0.184-0.41-0.41s0.184-0.41 0.41-0.41h13.128c0.227 0 0.41 0.184 0.41 0.41z"></path>
</symbol>
<symbol id="puzzle" viewBox="0 0 32 32">
<path fill="#8033fd" style="fill: var(--color1, #8033fd)" d="M13.037 32v-2.884c-2.044 0-3.707-1.687-3.707-3.761s1.663-3.761 3.707-3.761v-2.821h-5.181l0.441-1.256c0.067-0.184 0.106-0.397 0.106-0.619 0-0.002 0-0.003 0-0.005v0c0-1.037-0.832-1.881-1.854-1.881s-1.854 0.844-1.854 1.881c0 0.215 0.036 0.425 0.106 0.624l0.441 1.256h-5.242c0.46 7.027 6.111 12.761 13.037 13.227z"></path>
<path fill="#8033fd" style="fill: var(--color1, #8033fd)" d="M6.645 13.249c2.074 0 3.761 1.677 3.761 3.738h2.821v-5.224l1.256 0.444c1.158 0.41 2.504-0.519 2.505-1.762-0.001-1.244-1.346-2.181-2.505-1.763l-1.256 0.444v-5.177c-7.027 0.464-12.761 6.053-13.227 13.037h2.884c0-2.062 1.687-3.738 3.761-3.738zM28.444 18.963h-2.791c0 2.044-1.698 3.707-3.785 3.707s-3.786-1.663-3.786-3.707h-2.839v5.181l-1.264-0.441c-1.171-0.412-2.522 0.514-2.522 1.748-0.001 1.233 1.352 2.159 2.521 1.748l1.264-0.441v5.242c7.073-0.46 12.733-6.111 13.202-13.037z"></path>
<path fill="#8033fd" style="fill: var(--color1, #8033fd)" d="M28.176 7.51v-3.725h-3.761c-0-2.054-1.687-3.785-3.761-3.785s-3.761 1.732-3.761 3.786h-1.88v2.793c2.074 0 3.761 1.67 3.761 3.723s-1.687 3.724-3.761 3.724v2.793h5.256l-0.447 1.244c-0.068 0.183-0.107 0.394-0.107 0.614 0 0.002 0 0.003 0 0.005v-0c0 1.026 0.844 1.862 1.881 1.862s1.881-0.836 1.881-1.862c0-0.002 0-0.004 0-0.006 0-0.22-0.039-0.43-0.111-0.625l0.004 0.012-0.447-1.244h5.255v-1.862c2.074 0 3.824-1.67 3.824-3.724s-1.749-3.724-3.824-3.724z"></path>
</symbol>
<symbol id="security" viewBox="0 0 32 32">
<path fill="#8033fd" style="fill: var(--color1, #8033fd)" d="M16 9.904c-3.362 0-6.097 2.735-6.097 6.097s2.735 6.097 6.097 6.097c3.362 0 6.097-2.735 6.097-6.097s-2.735-6.097-6.097-6.097zM19.62 14.852l-4.368 4.368c-0.17 0.17-0.404 0.275-0.663 0.275-0 0-0 0-0.001 0h0c-0 0-0.001 0-0.001 0-0.259 0-0.493-0.105-0.663-0.275l-1.669-1.669c-0.174-0.171-0.282-0.408-0.282-0.67 0-0.518 0.42-0.939 0.939-0.939 0.263 0 0.5 0.108 0.67 0.281l1.006 1.005 3.704-3.704c0.17-0.17 0.405-0.275 0.664-0.275 0.518 0 0.939 0.42 0.939 0.939 0 0.259-0.105 0.494-0.275 0.664v0z"></path>
<path fill="#8033fd" style="fill: var(--color1, #8033fd)" d="M29.593 8.682l-0.001-0.025c-0.013-0.274-0.023-0.621-0.029-0.969l-0-0.025c-0.026-1.764-1.429-3.224-3.193-3.322-3.679-0.205-6.526-1.405-8.957-3.775l-0.021-0.020c-0.364-0.338-0.854-0.545-1.392-0.545s-1.027 0.207-1.393 0.547l0.001-0.001-0.021 0.020c-2.432 2.37-5.278 3.57-8.957 3.776-1.764 0.098-3.167 1.558-3.193 3.322-0.006 0.36-0.015 0.685-0.029 0.994l-0.002 0.058c-0.071 3.752-0.16 8.421 1.402 12.659 0.859 2.33 2.159 4.356 3.866 6.022 1.944 1.896 4.489 3.402 7.565 4.475 0.227 0.081 0.488 0.128 0.76 0.129h0c0 0 0 0 0 0 0.273 0 0.534-0.047 0.777-0.135l-0.016 0.005c3.073-1.075 5.616-2.581 7.558-4.478 1.705-1.666 3.006-3.692 3.866-6.023 1.568-4.251 1.479-8.928 1.408-12.687zM16 23.975c-4.397 0-7.975-3.577-7.975-7.975s3.578-7.975 7.975-7.975 7.975 3.577 7.975 7.974-3.578 7.975-7.975 7.975z"></path>
</symbol>
<symbol id="simple" viewBox="0 0 32 32">
<path fill="#8033fd" style="fill: var(--color1, #8033fd)" d="M31.499 15.054c-0.028-0.019-0.060-0.039-0.094-0.057l-0.006-0.003-2.271-1.222-12.593 6.667c-0.155 0.084-0.339 0.133-0.535 0.133s-0.38-0.049-0.541-0.136l0.006 0.003-12.593-6.667-2.271 1.223c-0.36 0.194-0.601 0.569-0.601 1 0 0.235 0.072 0.454 0.195 0.634l-0.003-0.004 15.808 8.369 15.808-8.369c0.12-0.177 0.192-0.395 0.192-0.63 0-0.39-0.197-0.734-0.497-0.937l-0.004-0.003z"></path>
<path fill="#8033fd" style="fill: var(--color1, #8033fd)" d="M31.862 22.314c-0.108-0.197-0.266-0.355-0.457-0.46l-0.006-0.003-2.27-1.223-12.593 6.667c-0.155 0.084-0.339 0.133-0.535 0.133s-0.38-0.049-0.541-0.136l0.006 0.003-12.593-6.667-2.271 1.223c-0.36 0.197-0.599 0.573-0.599 1.005s0.24 0.808 0.594 1.002l0.006 0.003 14.857 8c0.338 0.183 0.745 0.183 1.083 0l14.857-8c0.36-0.197 0.6-0.573 0.6-1.006 0-0.199-0.051-0.386-0.14-0.548l0.003 0.006zM31.499 8.197c-0.027-0.019-0.060-0.038-0.094-0.056l-0.006-0.003-14.857-8c-0.157-0.086-0.343-0.137-0.542-0.137s-0.385 0.051-0.548 0.139l0.006-0.003-14.857 8c-0.36 0.194-0.601 0.569-0.601 0.999 0 0.235 0.072 0.453 0.194 0.634l-0.003-0.004 15.808 8.37 15.808-8.369c0.12-0.177 0.192-0.395 0.192-0.63 0-0.39-0.197-0.734-0.497-0.937l-0.004-0.003z"></path>
</symbol>
<symbol id="statistics" viewBox="0 0 32 32">
<path fill="#8033fd" style="fill: var(--color1, #8033fd)" d="M4.75 15c0.757-0.001 1.444-0.302 1.948-0.792l-0.001 0.001 2.775 1.387c-0.014 0.113-0.034 0.224-0.034 0.341 0 1.551 1.261 2.812 2.812 2.812s2.812-1.262 2.812-2.813c0-0.433-0.107-0.838-0.282-1.205l3.765-3.765c0.352 0.176 0.766 0.28 1.204 0.282h0.001c1.551 0 2.812-1.262 2.812-2.813 0-0.292-0.057-0.568-0.14-0.833l3.271-2.453c0.437 0.296 0.975 0.473 1.555 0.473 0 0 0.001 0 0.002 0h-0c1.551 0 2.813-1.261 2.813-2.812s-1.262-2.812-2.813-2.812c-1.551 0-2.812 1.262-2.812 2.813 0 0.292 0.058 0.568 0.141 0.833l-3.271 2.453c-0.437-0.296-0.976-0.473-1.556-0.473-0 0-0 0-0.001 0h0c-1.551 0-2.813 1.262-2.813 2.813 0 0.433 0.107 0.838 0.282 1.205l-3.765 3.764c-0.352-0.176-0.766-0.279-1.204-0.282h-0.001c-0.757 0.001-1.444 0.302-1.947 0.791l0.001-0.001-2.775-1.387c0.014-0.113 0.035-0.224 0.035-0.341 0-1.551-1.262-2.813-2.813-2.813s-2.812 1.262-2.812 2.813c0 1.551 1.262 2.812 2.813 2.812z"></path>
<path fill="#8033fd" style="fill: var(--color1, #8033fd)" d="M31.063 30.125h-1v-19.812c0-0 0-0 0-0 0-0.518-0.42-0.937-0.937-0.937-0 0-0 0-0 0h-3.75c-0 0-0 0-0.001 0-0.518 0-0.937 0.42-0.937 0.937v0 19.812h-1.875v-14.187c0-0 0-0 0-0 0-0.518-0.42-0.937-0.937-0.937-0 0-0 0-0 0h-3.75c-0 0-0 0-0 0-0.518 0-0.937 0.42-0.937 0.937 0 0 0 0 0 0v-0 14.187h-1.875v-6.688c0-0 0-0 0-0 0-0.518-0.42-0.937-0.937-0.937-0 0-0 0-0 0h-3.75c-0 0-0 0-0 0-0.518 0-0.937 0.42-0.937 0.937 0 0 0 0 0 0v-0 6.688h-1.875v-10.438c0-0 0-0 0-0 0-0.518-0.42-0.937-0.937-0.937-0 0-0 0-0 0h-3.75c-0 0-0 0-0 0-0.518 0-0.937 0.42-0.937 0.937 0 0 0 0 0 0v-0 10.438h-1c-0.518 0-0.937 0.42-0.937 0.937s0.42 0.937 0.937 0.937h30.125c0.518 0 0.937-0.42 0.937-0.937s-0.42-0.937-0.937-0.937v0z"></path>
</symbol>
</defs>
</svg>
