<svg width="24" height="24" fill="none" xmlns="http://www.w3.org/2000/svg"><path d="M12 24c6.627 0 12-5.373 12-12S18.627 0 12 0 0 5.373 0 12s5.373 12 12 12z" fill="#F0F0F0"/><path d="M1.987 4A11.439 11.439 0 000 8h6L1.987 4zM23 8a11.44 11.44 0 00-1.987-4L17 8h6zM0 15a11.44 11.44 0 001.987 4L6 15H0zM19 1.987A11.44 11.44 0 0015 0v6l4-4.013zM4 21.013A11.44 11.44 0 008 23v-6l-4 4.013zM8 0a11.44 11.44 0 00-4 1.987L8 6V0zM15 23a11.44 11.44 0 004-1.987L15 17v6zM17 15l4.013 4A11.44 11.44 0 0023 15h-6z" fill="#0052B4"/><path d="M23.898 10.435H13.565V.102a12.12 12.12 0 00-3.13 0v10.333H.102a12.12 12.12 0 000 3.13h10.333v10.333a12.12 12.12 0 003.13 0V13.565h10.333a12.12 12.12 0 000-3.13z" fill="#D80027"/><path d="M15 15l5.302 5c.244-.23.476-.47.698-.72L16.461 15H15zM9 15l-5 5.302c.23.244.47.476.72.698L9 16.46V15zM9 9L3.698 4c-.243.23-.476.47-.698.72L7.539 9H9zM15 9l5-5.302c-.23-.244-.47-.476-.72-.698L15 7.539V9z" fill="#D80027"/></svg>